<svg width="30" height="46" viewBox="0 0 30 46" fill="none" xmlns="http://www.w3.org/2000/svg">
<path d="M0 29.116C0 31.366 1.959 33.192 4.375 33.192C6.791 33.192 8.75 31.366 8.75 29.116C8.75 27.466 6.182 25.913 6.182 23.002C6.182 20.382 8.75 18.538 8.75 16.888C8.75 14.638 6.791 12.812 4.375 12.812C1.959 12.812 0 14.637 0 16.888C0 18.538 2.568 20.381 2.568 23.002C2.568 25.622 0 27.465 0 29.116ZM21.25 4.076C21.25 1.826 23.209 0 25.625 0C28.041 0 30 1.825 30 4.076C30 4.785 29.526 5.476 28.986 6.264C28.268 7.31 27.432 8.529 27.432 10.19C27.432 11.65 28.23 12.87 28.937 13.95C29.497 14.806 30 15.574 30 16.304C30 16.402 29.996 16.499 29.989 16.594C29.996 16.691 30 16.788 30 16.886C30 17.595 29.526 18.286 28.986 19.074C28.268 20.12 27.432 21.339 27.432 23C27.432 24.46 28.23 25.68 28.937 26.76C29.497 27.616 30 28.384 30 29.114C29.9999 29.2111 29.9962 29.3082 29.989 29.405C29.9962 29.5018 29.9999 29.5989 30 29.696C30 30.426 29.497 31.194 28.937 32.051C28.23 33.13 27.432 34.349 27.432 35.811C27.432 37.471 28.268 38.69 28.986 39.736C29.526 40.525 30 41.216 30 41.924C30 44.174 28.041 46 25.625 46C23.209 46 21.25 44.175 21.25 41.924C21.25 41.194 21.753 40.426 22.313 39.57C23.02 38.49 23.818 37.271 23.818 35.81C23.818 34.35 23.02 33.13 22.313 32.05C21.753 31.194 21.25 30.426 21.25 29.696C21.25 29.598 21.253 29.501 21.26 29.406C21.253 29.3088 21.2496 29.2114 21.25 29.114C21.25 28.384 21.753 27.616 22.313 26.759C23.02 25.68 23.818 24.461 23.818 22.999C23.818 21.539 23.02 20.319 22.313 19.241C21.753 18.384 21.25 17.616 21.25 16.886C21.25 16.788 21.253 16.691 21.26 16.595C21.253 16.4982 21.2497 16.4011 21.25 16.304C21.25 15.574 21.753 14.806 22.313 13.949C23.02 12.87 23.818 11.651 23.818 10.189C23.818 8.729 23.02 7.509 22.313 6.43C21.753 5.574 21.25 4.806 21.25 4.076ZM15 39.596C12.583 39.596 10.624 37.771 10.624 35.52C10.624 34.79 11.127 34.022 11.688 33.165C12.394 32.086 13.193 30.867 13.193 29.406C13.193 27.946 12.394 26.726 11.688 25.646C11.128 24.79 10.624 24.022 10.624 23.292C10.6241 23.1949 10.6278 23.0978 10.635 23.001C10.628 22.9042 10.6247 22.8071 10.625 22.71C10.625 21.98 11.127 21.212 11.688 20.355C12.394 19.276 13.193 18.057 13.193 16.595C13.193 15.135 12.394 13.915 11.688 12.836C11.128 11.98 10.624 11.212 10.624 10.482C10.624 8.232 12.584 6.406 15 6.406C17.416 6.406 19.375 8.231 19.375 10.482C19.375 11.191 18.901 11.882 18.36 12.67C17.642 13.716 16.806 14.935 16.806 16.596C16.806 18.056 17.605 19.276 18.311 20.356C18.871 21.212 19.375 21.98 19.375 22.71C19.375 22.808 19.371 22.905 19.364 23C19.371 23.097 19.374 23.194 19.374 23.292C19.374 24.022 18.872 24.79 18.311 25.646C17.605 26.726 16.806 27.946 16.806 29.406C16.806 31.066 17.642 32.286 18.36 33.332C18.9 34.12 19.375 34.812 19.375 35.52C19.375 37.77 17.415 39.596 15 39.596Z" fill="#573CFF"/>
</svg>
