<svg xmlns="http://www.w3.org/2000/svg" width="162" height="46" fill="none"><path fill="#573CFF" d="M0 29.116c0 2.25 1.959 4.076 4.375 4.076s4.375-1.826 4.375-4.076c0-1.65-2.568-3.203-2.568-6.114 0-2.62 2.568-4.464 2.568-6.114 0-2.25-1.959-4.076-4.375-4.076S0 14.637 0 16.888c0 1.65 2.568 3.493 2.568 6.114 0 2.62-2.568 4.463-2.568 6.114zm21.25-25.04C21.25 1.826 23.209 0 25.625 0S30 1.825 30 4.076c0 .709-.474 1.4-1.014 2.188-.718 1.046-1.554 2.265-1.554 3.926 0 1.46.798 2.68 1.505 3.76.56.856 1.063 1.624 1.063 2.354 0 .098-.004.195-.011.29.007.097.011.194.011.292 0 .709-.474 1.4-1.014 2.188-.718 1.046-1.554 2.265-1.554 3.926 0 1.46.798 2.68 1.505 3.76.56.856 1.063 1.624 1.063 2.354a4 4 0 0 1-.011.291 4 4 0 0 1 .011.291c0 .73-.503 1.498-1.063 2.355-.707 1.079-1.505 2.298-1.505 3.76 0 1.66.836 2.879 1.554 3.925.54.789 1.014 1.48 1.014 2.188C30 44.174 28.041 46 25.625 46s-4.375-1.825-4.375-4.076c0-.73.503-1.498 1.063-2.354.707-1.08 1.505-2.299 1.505-3.76 0-1.46-.798-2.68-1.505-3.76-.56-.856-1.063-1.624-1.063-2.354 0-.098.003-.195.01-.29a3.848 3.848 0 0 1-.01-.292c0-.73.503-1.498 1.063-2.355.707-1.079 1.505-2.298 1.505-3.76 0-1.46-.798-2.68-1.505-3.758-.56-.857-1.063-1.625-1.063-2.355 0-.098.003-.195.01-.291a3.843 3.843 0 0 1-.01-.291c0-.73.503-1.498 1.063-2.355.707-1.079 1.505-2.298 1.505-3.76 0-1.46-.798-2.68-1.505-3.759-.56-.856-1.063-1.624-1.063-2.354zM15 39.596c-2.417 0-4.376-1.825-4.376-4.076 0-.73.503-1.498 1.064-2.355.706-1.079 1.505-2.298 1.505-3.759 0-1.46-.799-2.68-1.505-3.76-.56-.856-1.064-1.624-1.064-2.354a4 4 0 0 1 .011-.291 3.843 3.843 0 0 1-.01-.291c0-.73.502-1.498 1.063-2.355.706-1.079 1.505-2.298 1.505-3.76 0-1.46-.799-2.68-1.505-3.759-.56-.856-1.064-1.624-1.064-2.354 0-2.25 1.96-4.076 4.376-4.076 2.416 0 4.375 1.825 4.375 4.076 0 .709-.474 1.4-1.015 2.188-.718 1.046-1.554 2.265-1.554 3.926 0 1.46.799 2.68 1.505 3.76.56.856 1.064 1.624 1.064 2.354 0 .098-.004.195-.011.29.007.097.01.194.01.292 0 .73-.502 1.498-1.063 2.354-.706 1.08-1.505 2.3-1.505 3.76 0 1.66.836 2.88 1.554 3.926.54.788 1.015 1.48 1.015 2.188 0 2.25-1.96 4.076-4.375 4.076z"/><path fill="#03025A" d="M43.855 33h-3.672V13.02h3.672v8.208h8.343V13.02h3.672V33h-3.672v-8.586h-8.343V33zm16.783-16.524c-1.242 0-2.16-.945-2.16-2.106s.918-2.106 2.16-2.106c1.269 0 2.187.945 2.187 2.106s-.918 2.106-2.187 2.106zM62.447 33h-3.591V18.69h3.59V33zm6.32 0h-3.59V18.69h3.564v1.971h.135c.513-1.107 1.539-2.241 3.834-2.241.702 0 1.242.135 1.242.135v3.483s-.594-.108-1.35-.108c-2.538 0-3.834 1.296-3.834 4.455V33zm12.79.27c-4.887 0-7.128-3.753-7.128-7.425 0-3.618 2.16-7.425 6.993-7.425 3.888 0 6.588 2.619 6.588 7.506v.918h-9.963c.135 1.971 1.377 3.591 3.51 3.591 2.457 0 3.024-1.944 3.024-1.944h3.32s-.782 4.779-6.344 4.779zm-3.51-8.775h6.507c-.108-2.241-1.485-3.294-3.16-3.294-1.835 0-3.158 1.242-3.347 3.294zM97.618 33h-3.753l-5.319-14.31h3.645l3.591 10.206L99.32 18.69h3.645L97.618 33zm8.906-16.524c-1.242 0-2.16-.945-2.16-2.106s.918-2.106 2.16-2.106c1.269 0 2.187.945 2.187 2.106s-.918 2.106-2.187 2.106zM108.333 33h-3.591V18.69h3.591V33zm8.509.27c-5.778 0-6.183-4.725-6.183-4.725h3.402s.297 1.971 2.916 1.971c1.566 0 2.187-.81 2.187-1.62s-.621-1.269-1.755-1.512l-1.971-.405c-2.376-.486-4.536-1.539-4.536-4.131 0-2.538 2.079-4.428 5.427-4.428 5.292 0 5.751 4.347 5.751 4.347h-3.294s-.297-1.674-2.511-1.674c-1.485 0-2.079.783-2.079 1.512 0 .783.756 1.188 1.836 1.404l1.863.405c2.646.567 4.563 1.782 4.563 4.293 0 2.565-2.025 4.563-5.616 4.563zm9.62-16.794c-1.242 0-2.16-.945-2.16-2.106s.918-2.106 2.16-2.106c1.269 0 2.187.945 2.187 2.106s-.918 2.106-2.187 2.106zM128.271 33h-3.591V18.69h3.591V33zm9.858.27c-4.725 0-7.344-3.537-7.344-7.425s2.619-7.425 7.344-7.425 7.344 3.537 7.344 7.425-2.619 7.425-7.344 7.425zm0-2.997c2.403 0 3.726-2.079 3.726-4.428 0-2.349-1.323-4.428-3.726-4.428-2.376 0-3.726 2.079-3.726 4.428 0 2.349 1.35 4.428 3.726 4.428zM151.1 33h-3.591V18.69h3.591v2.052h.162c.432-.756 1.512-2.322 3.996-2.322 3.294 0 4.833 2.511 4.833 5.319V33H156.5v-8.775c0-1.539-.837-2.835-2.592-2.835-2.025 0-2.808 1.701-2.808 3.429V33z"/></svg>